<svg width="18" height="18" viewBox="0 0 18 18" fill="none" xmlns="http://www.w3.org/2000/svg">
<g clip-path="url(#clip0_22_10649)">
<path d="M10.0553 9.00517L17.7712 1.28931C18.069 1.0017 18.0772 0.527154 17.7896 0.229355C17.502 -0.0684448 17.0275 -0.0767024 16.7297 0.210907C16.7234 0.216924 16.7173 0.223074 16.7112 0.229355L8.99532 7.94522L1.27945 0.229311C0.981652 -0.0582986 0.507105 -0.050041 0.219496 0.247758C-0.0610863 0.538267 -0.0610863 0.998802 0.219496 1.28931L7.93537 9.00517L0.219496 16.721C-0.0731652 17.0137 -0.0731652 17.4883 0.219496 17.781C0.5122 18.0736 0.986747 18.0736 1.27945 17.781L8.99532 10.0651L16.7112 17.781C17.009 18.0686 17.4835 18.0603 17.7711 17.7625C18.0517 17.472 18.0517 17.0115 17.7711 16.721L10.0553 9.00517Z" fill="black"/>
</g>
<defs>
<clipPath id="clip0_22_10649">
<rect width="18" height="18" fill="white"/>
</clipPath>
</defs>
</svg>
