<svg width="24" height="33" viewBox="0 0 24 33" fill="none" xmlns="http://www.w3.org/2000/svg">
<path d="M12 0C5.38306 0 0 5.38306 0 12C0 14.1784 0.976941 16.5212 1.01788 16.62C1.33341 17.3689 1.956 18.5322 2.40494 19.2141L10.6327 31.6807C10.9694 32.1918 11.4678 32.4847 12 32.4847C12.5322 32.4847 13.0306 32.1918 13.3673 31.6814L21.5958 19.2141C22.0454 18.5322 22.6673 17.3689 22.9828 16.62C23.0238 16.5219 24 14.1791 24 12C24 5.38306 18.6169 0 12 0ZM21.6812 16.0722C21.3995 16.7435 20.82 17.8257 20.4169 18.4369L12.1885 30.9042C12.0261 31.1506 11.9746 31.1506 11.8122 30.9042L3.58376 18.4369C3.18071 17.8257 2.60118 16.7428 2.31953 16.0715C2.30753 16.0426 1.41176 13.8861 1.41176 12C1.41176 6.16165 6.16165 1.41177 12 1.41177C17.8384 1.41177 22.5882 6.16165 22.5882 12C22.5882 13.8889 21.6904 16.0511 21.6812 16.0722Z" fill="black"/>
<path d="M12.0004 5.64795C8.49711 5.64795 5.64746 8.49831 5.64746 12.0009C5.64746 15.5035 8.49711 18.3539 12.0004 18.3539C15.5037 18.3539 18.3534 15.5035 18.3534 12.0009C18.3534 8.49831 15.5037 5.64795 12.0004 5.64795ZM12.0004 16.9421C9.27641 16.9421 7.05923 14.7256 7.05923 12.0009C7.05923 9.27619 9.27641 7.05972 12.0004 7.05972C14.7244 7.05972 16.9416 9.27619 16.9416 12.0009C16.9416 14.7256 14.7244 16.9421 12.0004 16.9421Z" fill="black"/>
</svg>
