<svg width="21" height="20" viewBox="0 0 21 20" fill="none">
<path d="M9.02099 16.4718C4.47623 16.4718 0.778809 12.7772 0.778809 8.23588C0.778809 3.69459 4.47623 0 9.02099 0C13.5657 0 17.2632 3.69459 17.2632 8.23588C17.2632 12.7772 13.5657 16.4718 9.02099 16.4718ZM9.02099 1.5613C5.33779 1.5613 2.34131 4.5555 2.34131 8.23588C2.34131 11.9163 5.33779 14.9105 9.02099 14.9105C12.7042 14.9105 15.7007 11.9163 15.7007 8.23588C15.7007 4.5555 12.7042 1.5613 9.02099 1.5613ZM20.55 19.7713C20.8551 19.4665 20.8551 18.9722 20.55 18.6673L17.0539 15.1739C16.7488 14.869 16.2541 14.869 15.949 15.1739C15.6439 15.4788 15.6439 15.9731 15.949 16.2779L19.4451 19.7713C19.5977 19.9238 19.7976 20 19.9976 20C20.1975 20 20.3974 19.9238 20.55 19.7713Z" fill="#31352B"/>
</svg>
