<svg width="24" height="24" viewBox="0 0 24 24" fill="none">
<path d="M9.89063 19.7657C4.43691 19.7657 0 15.3321 0 9.88259C0 4.43303 4.43691 -0.000488281 9.89063 -0.000488281C15.3443 -0.000488281 19.7813 4.43303 19.7813 9.88259C19.7813 15.3321 15.3443 19.7657 9.89063 19.7657ZM9.89063 1.87308C5.47078 1.87308 1.875 5.46612 1.875 9.88259C1.875 14.2991 5.47078 17.8921 9.89063 17.8921C14.3105 17.8921 17.9063 14.2991 17.9063 9.88259C17.9063 5.46612 14.3105 1.87308 9.89063 1.87308ZM23.7255 23.7252C24.0916 23.3593 24.0916 22.7661 23.7255 22.4003L19.5301 18.2082C19.164 17.8424 18.5704 17.8424 18.2043 18.2082C17.8382 18.5741 17.8382 19.1672 18.2043 19.5331L22.3996 23.7252C22.5826 23.9081 22.8226 23.9995 23.0626 23.9995C23.3025 23.9995 23.5424 23.9081 23.7255 23.7252Z" fill="white"/>
</svg>
