<svg width="24" height="24" viewBox="0 0 24 24" fill="none" xmlns="http://www.w3.org/2000/svg">
<path d="M23.309 17.9377L19.8403 14.4675C19.3744 14.004 18.7506 13.7486 18.084 13.7486C17.3903 13.7486 16.7353 14.0218 16.2401 14.5173L14.8899 15.8673C13.8406 15.2841 12.4461 14.482 10.9982 13.0341C9.55205 11.5874 8.74983 10.197 8.16366 9.14207L9.51521 7.79151C10.5201 6.78457 10.5406 5.16912 9.56118 4.19058L6.09309 0.72239C5.62854 0.25655 5.00474 0 4.33646 0C3.65825 0 3.01668 0.261117 2.52433 0.736389C2.22647 0.976259 0.731753 2.29574 0.174671 5.01692C-0.605304 8.82575 1.18677 12.4904 6.36026 17.666C12.1395 23.4434 17.0732 23.8925 18.4477 23.8925C18.7338 23.8925 18.9065 23.8748 18.9526 23.8695C21.6478 23.5535 22.6129 22.3566 23.3175 21.4826C24.2305 20.3498 24.2273 18.8594 23.309 17.9377ZM22.158 20.5478C21.4957 21.3693 20.8702 22.1451 18.7793 22.3902C18.7782 22.3903 18.6638 22.4031 18.4477 22.4031C17.218 22.4031 12.7877 21.9855 7.41337 16.6129C2.64247 11.84 0.96795 8.56692 1.63365 5.31557C2.11955 2.94208 3.40954 1.93326 3.45968 1.89493L3.50416 1.86207L3.54318 1.82295C3.75853 1.6078 4.04019 1.48926 4.33636 1.48926C4.60601 1.48926 4.85542 1.59033 5.03929 1.7748L8.50817 5.24378C8.9073 5.64251 8.88605 6.31347 8.46141 6.739L6.93293 8.26619L6.90781 8.2925C6.50949 8.73123 6.55635 9.32416 6.77577 9.71027C7.4089 10.8528 8.27615 12.4176 9.94491 14.0869C11.6081 15.7501 13.1707 16.6167 14.31 17.2486C14.4241 17.3126 14.6596 17.4201 14.9544 17.4201C15.3025 17.4201 15.6221 17.2727 15.8587 17.0042L17.2931 15.5701C17.5073 15.3559 17.7881 15.2378 18.0838 15.2378C18.3541 15.2378 18.6048 15.3392 18.7882 15.5217L22.2547 18.9896C22.6951 19.4316 22.5133 20.1072 22.158 20.5478Z" fill="#31352B"/>
<path d="M14.5394 3.64851C15.8189 3.79574 17.3254 4.57076 18.3774 5.62287C19.4393 6.68471 20.2162 8.20653 20.3565 9.49991C20.3979 9.88145 20.7205 10.1642 21.0958 10.1642C21.1226 10.1642 21.1498 10.1627 21.1771 10.1598C21.5859 10.1155 21.8814 9.74812 21.837 9.33927C21.6596 7.70436 20.7374 5.87684 19.4305 4.56986C18.1359 3.2751 16.327 2.35523 14.7097 2.16908C14.3013 2.12172 13.9319 2.4152 13.8848 2.82366C13.8378 3.23211 14.1308 3.60145 14.5394 3.64851Z" fill="#31352B"/>
<path d="M13.8442 6.76827C14.5362 6.848 15.4939 7.3613 16.1213 7.98867C16.754 8.62151 17.2683 9.58834 17.344 10.2878C17.3854 10.6694 17.7081 10.9522 18.0834 10.9522C18.1102 10.9522 18.1373 10.9507 18.1645 10.9478C18.5734 10.9035 18.8689 10.5361 18.8246 10.1272C18.6951 8.93306 17.9023 7.66372 17.1742 6.93557C16.4526 6.21387 15.1956 5.42486 14.0145 5.28874C13.6055 5.24119 13.2366 5.53477 13.1895 5.94322C13.1425 6.35178 13.4356 6.72121 13.8442 6.76827Z" fill="#31352B"/>
</svg>
