<svg width="198" height="60" viewBox="0 0 198 60" fill="none" xmlns="http://www.w3.org/2000/svg">
<path d="M78.9004 30.18C76.7911 30.18 75.0364 29.928 73.6364 29.424C72.2551 28.92 71.2191 28.0893 70.5284 26.932C69.8564 25.756 69.5204 24.188 69.5204 22.228C69.5204 20.2307 69.8657 18.6627 70.5564 17.524C71.2657 16.3853 72.3111 15.5733 73.6924 15.088C75.0924 14.6027 76.8284 14.36 78.9004 14.36C81.0284 14.36 82.7831 14.612 84.1644 15.116C85.5457 15.6013 86.5724 16.4227 87.2444 17.58C87.9351 18.7187 88.2804 20.268 88.2804 22.228C88.2804 24.2253 87.9257 25.812 87.2164 26.988C86.5257 28.1453 85.4804 28.9667 84.0804 29.452C82.6991 29.9373 80.9724 30.18 78.9004 30.18ZM78.9004 27.856C80.1697 27.856 81.2151 27.7813 82.0364 27.632C82.8764 27.464 83.5204 27.184 83.9684 26.792C84.4351 26.3813 84.7524 25.8213 84.9204 25.112C85.1071 24.384 85.2004 23.4507 85.2004 22.312C85.2004 21.1547 85.1071 20.212 84.9204 19.484C84.7524 18.7373 84.4351 18.1587 83.9684 17.748C83.5204 17.3373 82.8764 17.0573 82.0364 16.908C81.2151 16.74 80.1697 16.656 78.9004 16.656C77.6497 16.656 76.6137 16.74 75.7924 16.908C74.9711 17.0573 74.3271 17.3373 73.8604 17.748C73.3937 18.1587 73.0671 18.7373 72.8804 19.484C72.7124 20.212 72.6284 21.1547 72.6284 22.312C72.6284 23.4507 72.7217 24.384 72.9084 25.112C73.0951 25.8213 73.4217 26.3813 73.8884 26.792C74.3551 27.184 74.9991 27.464 75.8204 27.632C76.6417 27.7813 77.6684 27.856 78.9004 27.856ZM77.4164 32.028L77.5004 23.04L77.4164 12.484H80.4124L80.3004 21.108L80.4124 32L77.4164 32.028ZM92.2245 32L92.3365 22.928L92.2245 12.484C92.2245 12.484 92.4298 12.4653 92.8405 12.428C93.2698 12.3907 93.8205 12.344 94.4925 12.288C95.1645 12.232 95.9018 12.1853 96.7045 12.148C97.5071 12.1107 98.2818 12.092 99.0285 12.092C100.802 12.092 102.174 12.652 103.144 13.772C104.134 14.8733 104.628 16.5347 104.628 18.756C104.628 20.1373 104.451 21.2853 104.096 22.2C103.742 23.096 103.266 23.796 102.668 24.3C102.09 24.804 101.427 25.168 100.68 25.392C99.9525 25.5973 99.2058 25.7 98.4405 25.7C97.8245 25.7 97.1898 25.6813 96.5365 25.644C95.8831 25.588 95.4351 25.56 95.1925 25.56V32H92.2245ZM98.5805 23.264C99.1405 23.264 99.5885 23.2267 99.9245 23.152C100.279 23.0773 100.559 22.9467 100.764 22.76C101.044 22.48 101.231 21.9853 101.324 21.276C101.436 20.5667 101.492 19.6333 101.492 18.476C101.492 17.5427 101.446 16.8333 101.352 16.348C101.278 15.844 101.175 15.4893 101.044 15.284C100.914 15.06 100.783 14.9107 100.652 14.836C100.484 14.7053 100.204 14.6027 99.8125 14.528C99.4205 14.4347 98.9538 14.388 98.4125 14.388C97.7778 14.388 97.1711 14.416 96.5925 14.472C96.0138 14.528 95.5471 14.584 95.1925 14.64V22.956C95.3791 22.9747 95.7991 23.0307 96.4525 23.124C97.1245 23.2173 97.8338 23.264 98.5805 23.264ZM108.822 32V12.484H119.07V15.06L110.474 14.948L111.846 13.632L111.622 21.92L110.334 20.828H118.37V23.32H110.334L111.622 22.172L111.846 30.824L110.474 29.48L119.07 29.424V32H108.822ZM123.533 32V12.484H126.501L126.417 21.948V30.768L125.073 29.424H133.837L132.493 30.768L132.521 22.088L132.465 12.484H135.433L135.349 22.088L135.405 30.768L134.061 29.424H142.741L141.397 30.768V22.004L141.313 12.484H144.281V32H123.533ZM156.392 32.392C155.365 32.392 154.394 32.2427 153.48 31.944C152.565 31.6453 151.753 31.1227 151.044 30.376C150.353 29.6293 149.812 28.5933 149.42 27.268C149.028 25.9427 148.832 24.2533 148.832 22.2C148.832 20.1467 149.028 18.4667 149.42 17.16C149.812 15.8347 150.353 14.808 151.044 14.08C151.753 13.3333 152.565 12.82 153.48 12.54C154.394 12.2413 155.365 12.092 156.392 12.092C157.418 12.092 158.38 12.2413 159.276 12.54C160.19 12.82 160.993 13.3333 161.684 14.08C162.393 14.808 162.944 15.8253 163.336 17.132C163.728 18.4387 163.924 20.128 163.924 22.2C163.924 24.2533 163.728 25.9427 163.336 27.268C162.944 28.5933 162.393 29.6293 161.684 30.376C160.993 31.1227 160.19 31.6453 159.276 31.944C158.38 32.2427 157.418 32.392 156.392 32.392ZM156.392 29.732C157.138 29.732 157.792 29.648 158.352 29.48C158.912 29.312 159.369 28.976 159.724 28.472C160.097 27.9493 160.368 27.1933 160.536 26.204C160.722 25.2147 160.816 23.8987 160.816 22.256C160.816 20.632 160.732 19.3253 160.564 18.336C160.396 17.328 160.134 16.572 159.78 16.068C159.425 15.5453 158.958 15.1907 158.38 15.004C157.82 14.8173 157.157 14.724 156.392 14.724C155.589 14.724 154.908 14.8173 154.348 15.004C153.806 15.1907 153.358 15.5453 153.004 16.068C152.649 16.572 152.388 17.328 152.22 18.336C152.052 19.3253 151.968 20.6413 151.968 22.284C151.968 23.908 152.052 25.2147 152.22 26.204C152.388 27.1933 152.649 27.9493 153.004 28.472C153.377 28.976 153.844 29.312 154.404 29.48C154.964 29.648 155.626 29.732 156.392 29.732ZM179.294 32L171.538 21.892L178.734 12.484H182.318L174.898 21.724V21.892L183.046 32H179.294ZM168.486 32L168.57 22.088L168.486 12.484H171.482V32H168.486Z" fill="#63A60E"/>
<path d="M82.2798 50.168C81.8398 50.168 81.4238 50.104 81.0318 49.976C80.6398 49.848 80.2918 49.624 79.9878 49.304C79.6918 48.984 79.4598 48.54 79.2918 47.972C79.1238 47.404 79.0398 46.68 79.0398 45.8C79.0398 44.92 79.1238 44.2 79.2918 43.64C79.4598 43.072 79.6918 42.632 79.9878 42.32C80.2918 42 80.6398 41.78 81.0318 41.66C81.4238 41.532 81.8398 41.468 82.2798 41.468C82.7198 41.468 83.1318 41.532 83.5158 41.66C83.9078 41.78 84.2518 42 84.5478 42.32C84.8518 42.632 85.0878 43.068 85.2558 43.628C85.4238 44.188 85.5078 44.912 85.5078 45.8C85.5078 46.68 85.4238 47.404 85.2558 47.972C85.0878 48.54 84.8518 48.984 84.5478 49.304C84.2518 49.624 83.9078 49.848 83.5158 49.976C83.1318 50.104 82.7198 50.168 82.2798 50.168ZM82.2798 49.028C82.5998 49.028 82.8798 48.992 83.1198 48.92C83.3598 48.848 83.5558 48.704 83.7078 48.488C83.8678 48.264 83.9838 47.94 84.0558 47.516C84.1358 47.092 84.1758 46.528 84.1758 45.824C84.1758 45.128 84.1398 44.568 84.0678 44.144C83.9958 43.712 83.8838 43.388 83.7318 43.172C83.5798 42.948 83.3798 42.796 83.1318 42.716C82.8918 42.636 82.6078 42.596 82.2798 42.596C81.9358 42.596 81.6438 42.636 81.4038 42.716C81.1718 42.796 80.9798 42.948 80.8278 43.172C80.6758 43.388 80.5638 43.712 80.4918 44.144C80.4198 44.568 80.3838 45.132 80.3838 45.836C80.3838 46.532 80.4198 47.092 80.4918 47.516C80.5638 47.94 80.6758 48.264 80.8278 48.488C80.9878 48.704 81.1878 48.848 81.4278 48.92C81.6678 48.992 81.9518 49.028 82.2798 49.028ZM87.4631 50V41.636H88.7351L88.6991 45.608L88.1351 45.188H92.5631L91.9991 45.608L91.9631 41.636H93.2351V50H91.9631L91.9991 45.872L92.5631 46.292H88.1351L88.6991 45.872L88.7351 50H87.4631ZM94.8642 50.168L94.6482 49.22C94.7602 49.204 94.8642 49.188 94.9602 49.172C95.0562 49.148 95.1362 49.124 95.2002 49.1C95.3602 49.044 95.4842 48.964 95.5722 48.86C95.6602 48.756 95.7282 48.58 95.7762 48.332C95.8322 48.084 95.8722 47.724 95.8962 47.252L96.2682 41.636H101.116V50H99.8442L99.9042 42.728H97.4322L97.1202 47.372C97.0802 47.94 97.0122 48.416 96.9162 48.8C96.8202 49.184 96.6522 49.476 96.4122 49.676C96.2442 49.82 96.0202 49.936 95.7402 50.024C95.4682 50.12 95.1762 50.168 94.8642 50.168ZM102.295 50L104.575 41.636H106.303L108.583 50H107.287L106.639 47.444L107.311 47.888H103.591L104.239 47.444L103.603 50H102.295ZM104.251 47.372L103.819 46.796H107.071L106.639 47.372L105.343 42.224L106.051 42.776H104.839L105.535 42.224L104.251 47.372ZM109.787 50V41.636H111.011L110.963 45.884V48.176L114.059 41.636H115.811V50H114.587L114.635 46.148V42.932L111.299 50H109.787ZM112.775 41.324C112.167 41.324 111.695 41.18 111.359 40.892C111.031 40.604 110.851 40.144 110.819 39.512L111.635 39.476C111.675 39.764 111.779 39.98 111.947 40.124C112.115 40.268 112.391 40.34 112.775 40.34C113.199 40.34 113.495 40.268 113.663 40.124C113.831 39.98 113.935 39.764 113.975 39.476L114.695 39.512C114.679 39.936 114.591 40.284 114.431 40.556C114.271 40.82 114.051 41.016 113.771 41.144C113.499 41.264 113.167 41.324 112.775 41.324ZM118.166 50V41.636H119.438L119.402 45.608L118.838 45.188H123.266L122.702 45.608L122.666 41.636H123.938V50H122.666L122.702 45.872L123.266 46.292H118.838L119.402 45.872L119.438 50H118.166ZM125.579 46.604V45.536H128.435V46.604H125.579ZM130.036 50L130.324 41.636H132.064L133.804 46.88H133.888L135.652 41.636H137.392L137.68 50H136.42L136.372 42.968H136.288L134.572 48.104H133.132L131.428 42.968H131.344L131.296 50H130.036ZM138.799 50L141.079 41.636H142.807L145.087 50H143.791L143.143 47.444L143.815 47.888H140.095L140.743 47.444L140.107 50H138.799ZM140.755 47.372L140.323 46.796H143.575L143.143 47.372L141.847 42.224L142.555 42.776H141.343L142.039 42.224L140.755 47.372ZM146.291 50L146.339 46.112L146.291 41.636C146.291 41.636 146.379 41.628 146.555 41.612C146.739 41.596 146.975 41.576 147.263 41.552C147.551 41.528 147.867 41.508 148.211 41.492C148.555 41.476 148.887 41.468 149.207 41.468C149.967 41.468 150.555 41.708 150.971 42.188C151.395 42.66 151.607 43.372 151.607 44.324C151.607 44.916 151.531 45.408 151.379 45.8C151.227 46.184 151.023 46.484 150.767 46.7C150.519 46.916 150.235 47.072 149.915 47.168C149.603 47.256 149.283 47.3 148.955 47.3C148.691 47.3 148.419 47.292 148.139 47.276C147.859 47.252 147.667 47.24 147.563 47.24V50H146.291ZM149.015 46.256C149.255 46.256 149.447 46.24 149.591 46.208C149.743 46.176 149.863 46.12 149.951 46.04C150.071 45.92 150.151 45.708 150.191 45.404C150.239 45.1 150.263 44.7 150.263 44.204C150.263 43.804 150.243 43.5 150.203 43.292C150.171 43.076 150.127 42.924 150.071 42.836C150.015 42.74 149.959 42.676 149.903 42.644C149.831 42.588 149.711 42.544 149.543 42.512C149.375 42.472 149.175 42.452 148.943 42.452C148.671 42.452 148.411 42.464 148.163 42.488C147.915 42.512 147.715 42.536 147.563 42.56V46.124C147.643 46.132 147.823 46.156 148.103 46.196C148.391 46.236 148.695 46.256 149.015 46.256ZM158.037 50L154.713 45.668L157.797 41.636H159.333L156.153 45.596V45.668L159.645 50H158.037ZM153.405 50L153.441 45.752L153.405 41.636H154.689V50H153.405ZM160.635 50V41.636H165.027V42.74L161.343 42.692L161.931 42.128L161.835 45.68L161.283 45.212H164.727V46.28H161.283L161.835 45.788L161.931 49.496L161.343 48.92L165.027 48.896V50H160.635ZM168.044 50L168.068 42.704L165.728 42.74V41.636H171.644V42.74L169.28 42.704L169.304 50H168.044Z" fill="#63A60E"/>
<path opacity="0.2" d="M54.648 59.0669C54.648 58.5552 43.1737 58.1338 29.0364 58.1338C14.8991 58.1338 3.4248 58.5552 3.4248 59.0669C3.4248 59.5786 14.8991 60 29.0364 60C43.2066 60 54.648 59.5786 54.648 59.0669Z" fill="#5D5D5D"/>
<path d="M29.3987 11.8096C40.5442 11.8096 49.5855 20.0871 49.5855 30.291V48.7725H29.3987C18.2532 48.7725 9.21191 40.495 9.21191 30.291V11.8096H29.3987Z" fill="#63A60E"/>
<path opacity="0.3" d="M46.692 20.7793C45.0153 22.5552 43.9961 24.8729 43.9961 27.4013C43.9961 31.1638 46.2318 34.4447 49.5524 36.2206V30.2909C49.5524 26.8294 48.5332 23.5786 46.692 20.7793Z" fill="#63A60E"/>
<path d="M38.7692 13.9468C35.613 15.6023 33.5088 18.7026 33.5088 22.2845C33.5088 27.5821 38.2103 31.8864 43.9967 31.8864C46.0351 31.8864 47.942 31.3446 49.553 30.4115V30.2911C49.553 23.1875 45.1803 17.017 38.7692 13.9468Z" fill="#63A60E"/>
<path opacity="0.5" d="M22.9218 15.3906C17.7272 15.3906 12.96 17.0461 9.21191 19.8454V30.3203C9.21191 40.5242 18.2532 48.8017 29.3987 48.8017H39.0647C42.5826 45.2499 44.7196 40.5543 44.7196 35.3771C44.7196 24.3304 34.955 15.3906 22.9218 15.3906Z" fill="#E0EDCF"/>
<path d="M49.5526 48.7421L29.3987 48.7722C18.2532 48.7722 9.21191 40.4946 9.21191 30.2907V11.8394L49.5526 48.7421Z" fill="#63A60E"/>
<path opacity="0.3" d="M12.335 18.4311C12.335 32.4577 24.7627 43.8054 40.0507 43.8054C41.3658 43.8054 42.648 43.7151 43.8974 43.5646L12.598 14.9395C12.4336 16.0833 12.335 17.2572 12.335 18.4311Z" fill="#63A60E"/>
<path opacity="0.3" d="M49.5523 48.7721L9.37598 11.9897C14.1103 18.4613 19.568 25.0231 25.1243 30.4411C29.4641 34.6551 41.9905 44.0764 49.5523 48.7721Z" fill="#63A60E"/>
<path opacity="0.3" d="M22.3958 23.8794L9.21191 11.8394V30.3208C9.21191 38.4779 14.9984 45.401 22.9876 47.8391C19.5683 44.6786 17.4642 40.3441 17.4642 35.5883C17.4642 31.0733 19.3382 26.9797 22.3958 23.8794Z" fill="#63A60E"/>
<path opacity="0.3" d="M40.347 40.3442C36.9277 44.167 31.733 46.6352 25.9137 46.6352C22.0342 46.6352 18.4176 45.5516 15.4258 43.6854C19.0423 46.8459 23.9411 48.8024 29.3659 48.8024H49.5527V48.7723L40.347 40.3442Z" fill="#63A60E"/>
<path opacity="0.3" d="M10.3955 22.8861C10.3955 19.9062 10.9544 17.0166 12.0065 14.3678L9.21191 11.8394V30.3208C9.21191 40.5247 18.2532 48.8023 29.3987 48.8023H49.5855V48.7722L47.58 46.9361C44.6539 47.8993 41.5305 48.411 38.2428 48.411C22.8561 48.3809 10.3955 36.9729 10.3955 22.8861Z" fill="#E0EDCF"/>
<path d="M49.2235 52.3544C50.6372 51.9932 52.1167 52.7758 52.4784 54.0701C52.8729 55.3644 52.0181 56.7189 50.5715 57.05C49.1577 57.4112 47.6782 56.6286 47.3166 55.3343C46.9549 54.04 47.8097 52.7156 49.2235 52.3544ZM48.6974 50.5183C46.1659 51.1504 44.6535 53.4982 45.3439 55.8159C46.0015 58.1336 48.5988 59.5182 51.1304 58.8861C53.662 58.254 55.1743 55.8761 54.4839 53.5885C53.8263 51.2708 51.229 49.9163 48.6974 50.5183Z" fill="#63A60E"/>
<path opacity="0.5" d="M52.0509 56.1765C51.6893 56.5979 51.1961 56.929 50.6043 57.0795C49.1906 57.4407 47.7111 56.6581 47.3495 55.3638C47.0864 54.4006 47.4481 53.4374 48.2372 52.8655C47.8426 52.3538 47.5139 51.7819 47.1851 51.21C45.607 52.2334 44.8179 54.0695 45.3439 55.8755C46.0015 58.1932 48.5988 59.5778 51.1304 58.9457C52.314 58.6447 53.2674 57.9825 53.8921 57.1096C53.2674 56.8086 52.6427 56.5076 52.0509 56.1765Z" fill="#63A60E"/>
<path d="M10.1648 52.3543C11.5785 52.0232 13.058 52.8058 13.4196 54.1001C13.7813 55.3944 12.9265 56.7489 11.5127 57.08C10.099 57.4111 8.61952 56.6285 8.25787 55.3342C7.89622 54.0399 8.75103 52.6854 10.1648 52.3543ZM9.63872 50.5182C7.10716 51.1202 5.59479 53.4981 6.25234 55.8158C6.90989 58.1335 9.50721 59.5181 12.0388 58.9161C14.5704 58.3141 16.0827 55.9362 15.458 53.6185C14.7676 51.3008 12.1703 49.9162 9.63872 50.5182Z" fill="#63A60E"/>
<path opacity="0.5" d="M12.9594 56.2069C12.5978 56.6283 12.1046 56.9594 11.5128 57.0798C10.0991 57.4109 8.6196 56.6283 8.25795 55.334C7.99493 54.3708 8.38946 53.4076 9.14564 52.8357C8.75111 52.324 8.42233 51.7521 8.12644 51.1802C6.54832 52.1735 5.72638 54.0096 6.25242 55.8156C6.90997 58.1333 9.50729 59.5179 12.0389 58.9159C13.2225 58.645 14.2088 57.9527 14.8006 57.0798C14.143 56.839 13.5512 56.538 12.9594 56.2069Z" fill="#63A60E"/>
<path d="M10.4938 10.5455C9.86915 10.5455 9.34311 10.0639 9.34311 9.49205C9.34311 7.02384 8.58693 5.15763 7.14031 3.92353C4.80601 1.90682 1.28812 2.11752 1.25524 2.11752C0.630565 2.17772 0.071647 1.72622 0.00589198 1.15432C-0.0598631 0.582418 0.4333 0.0707164 1.05797 0.0105162C1.25524 0.0105162 5.59507 -0.290485 8.68556 2.32822C10.6582 3.98373 11.6445 6.39174 11.6445 9.46194C11.6445 10.0639 11.1514 10.5455 10.4938 10.5455Z" fill="#63A60E"/>
</svg>
