<svg width="37" height="40" viewBox="0 0 37 40" fill="none" xmlns="http://www.w3.org/2000/svg">
<path opacity="0.2" d="M36.4321 39.3779C36.4321 39.0368 28.7826 38.7559 19.3576 38.7559C9.93273 38.7559 2.2832 39.0368 2.2832 39.3779C2.2832 39.7191 9.93273 40 19.3576 40C28.8045 40 36.4321 39.7191 36.4321 39.3779Z" fill="#5D5D5D"/>
<path d="M19.5995 7.87305C27.0298 7.87305 33.0574 13.3914 33.0574 20.194V32.515H19.5995C12.1692 32.515 6.1416 26.9967 6.1416 20.194V7.87305H19.5995Z" fill="white"/>
<path opacity="0.3" d="M31.1283 13.853C30.0105 15.037 29.3311 16.5821 29.3311 18.2677C29.3311 20.7761 30.8215 22.9634 33.0352 24.1473V20.1942C33.0352 17.8865 32.3557 15.7192 31.1283 13.853Z" fill="white"/>
<path d="M25.8458 9.29785C23.7416 10.4015 22.3389 12.4684 22.3389 14.8563C22.3389 18.3881 25.4732 21.2576 29.3308 21.2576C30.6898 21.2576 31.961 20.8964 33.035 20.2744V20.1941C33.035 15.4583 30.1199 11.3447 25.8458 9.29785Z" fill="white"/>
<path opacity="0.5" d="M15.2815 10.2603C11.8184 10.2603 8.64029 11.3639 6.1416 13.2301V20.2134C6.1416 27.016 12.1691 32.5344 19.5995 32.5344H26.0435C28.3887 30.1665 29.8134 27.0361 29.8134 23.5846C29.8134 16.2201 23.3037 10.2603 15.2815 10.2603Z" fill="#F8F6EC"/>
<path d="M33.0354 32.4949L19.5995 32.515C12.1691 32.515 6.1416 26.9966 6.1416 20.194V7.89307L33.0354 32.4949Z" fill="white"/>
<path opacity="0.3" d="M8.22363 12.2877C8.22363 21.6388 16.5088 29.204 26.7008 29.204C27.5775 29.204 28.4323 29.1438 29.2652 29.0435L8.39898 9.95996C8.28939 10.7225 8.22363 11.5051 8.22363 12.2877Z" fill="white"/>
<path opacity="0.3" d="M33.0352 32.5147L6.25098 7.99316C9.40722 12.3075 13.0457 16.6821 16.7499 20.2941C19.6431 23.1034 27.994 29.3843 33.0352 32.5147Z" fill="white"/>
<path opacity="0.3" d="M14.9309 15.9198L6.1416 7.89307V20.214C6.1416 25.6521 9.99925 30.2675 15.3254 31.8929C13.0459 29.7859 11.6431 26.8962 11.6431 23.7257C11.6431 20.7157 12.8925 17.9866 14.9309 15.9198Z" fill="white"/>
<path opacity="0.3" d="M26.8983 26.8965C24.6188 29.445 21.1557 31.0904 17.2761 31.0904C14.6898 31.0904 12.2788 30.368 10.2842 29.1239C12.6952 31.2309 15.961 32.5353 19.5776 32.5353H33.0355V32.5152L26.8983 26.8965Z" fill="white"/>
<path opacity="0.3" d="M6.93066 15.2576C6.93066 13.271 7.30328 11.3446 8.00466 9.57868L6.1416 7.89307V20.2141C6.1416 27.0167 12.1692 32.5351 19.5995 32.5351H33.0574V32.515L31.7204 31.291C29.7696 31.9331 27.6874 32.2742 25.4955 32.2742C15.2377 32.2542 6.93066 24.6488 6.93066 15.2576Z" fill="#F8F6EC"/>
<path d="M32.816 34.9032C33.7584 34.6624 34.7448 35.1842 34.9859 36.0471C35.2489 36.9099 34.679 37.813 33.7146 38.0337C32.7721 38.2745 31.7858 37.7528 31.5447 36.8899C31.3036 36.027 31.8735 35.1441 32.816 34.9032ZM32.4653 33.6792C30.7776 34.1006 29.7693 35.6658 30.2296 37.211C30.668 38.7561 32.3995 39.6792 34.0872 39.2578C35.7749 38.8364 36.7832 37.2511 36.3229 35.726C35.8845 34.1808 34.153 33.2778 32.4653 33.6792Z" fill="white"/>
<path opacity="0.5" d="M34.7006 37.4511C34.4595 37.7321 34.1308 37.9528 33.7362 38.0531C32.7937 38.2939 31.8074 37.7722 31.5663 36.9093C31.391 36.2672 31.6321 35.6251 32.1581 35.2438C31.8951 34.9027 31.6759 34.5214 31.4567 34.1401C30.4046 34.8224 29.8786 36.0465 30.2293 37.2505C30.6677 38.7956 32.3992 39.7187 34.0869 39.2973C34.876 39.0966 35.5116 38.6551 35.9281 38.0732C35.5116 37.8725 35.0952 37.6719 34.7006 37.4511Z" fill="white"/>
<path d="M6.77619 34.9033C7.71867 34.6826 8.705 35.2043 8.9461 36.0672C9.1872 36.93 8.61733 37.833 7.67484 38.0538C6.73235 38.2745 5.74602 37.7528 5.50492 36.8899C5.26382 36.027 5.8337 35.124 6.77619 34.9033ZM6.42549 33.6793C4.73778 34.0806 3.72953 35.6658 4.1679 37.211C4.60627 38.7561 6.33782 39.6791 8.02553 39.2778C9.71324 38.8765 10.7215 37.2912 10.305 35.7461C9.84475 34.201 8.1132 33.2779 6.42549 33.6793Z" fill="white"/>
<path opacity="0.5" d="M8.63962 37.4713C8.39852 37.7523 8.06974 37.973 7.67521 38.0533C6.73273 38.274 5.7464 37.7523 5.5053 36.8894C5.32995 36.2472 5.59297 35.6051 6.09709 35.2238C5.83407 34.8827 5.61489 34.5014 5.41762 34.1201C4.36554 34.7823 3.81759 36.0064 4.16828 37.2105C4.60665 38.7556 6.33819 39.6787 8.02591 39.2774C8.81497 39.0968 9.47252 38.6352 9.86705 38.0533C9.42868 37.8927 9.03415 37.6921 8.63962 37.4713Z" fill="white"/>
<path d="M6.99588 7.03041C6.57944 7.03041 6.22874 6.70934 6.22874 6.32807C6.22874 4.68259 5.72462 3.43844 4.76021 2.6157C3.20401 1.27122 0.858744 1.41169 0.836826 1.41169C0.420377 1.45182 0.0477647 1.15082 0.00392799 0.769551C-0.0399087 0.388281 0.288867 0.0471446 0.705315 0.00701086C0.836826 0.00701086 3.73005 -0.193658 5.79037 1.55216C7.10548 2.65583 7.76303 4.26118 7.76303 6.308C7.76303 6.70934 7.43425 7.03041 6.99588 7.03041Z" fill="white"/>
</svg>
